# xmcd
#
# Track frame offsets:
#	150
#	20026
#	42086
#	65321
#	88221
#	117775
#	141394
#	165063
#	191829
#	213775
#
# Disc length: 3042 seconds
#
# Revision: 3140219595
# Processed by: cddbd v1.5.2PL0 Copyright (c) Steve Scherf et al.
# Submitted via: EZCDAudioConverter 8.0.2.1
#
DISCID=840be00a
DTITLE=Quang Lê - Kẻ Ở Miền Xa
DYEAR=2004
DGENRE=Miscellaneous
TTITLE0=Kẻ Ở Miền Xa
TTITLE1=Chuyện ngày cuối năm
TTITLE2=Chuyện tình sông Hương
TTITLE3=Giận hờn 2
TTITLE4=Người phu kéo mo cau
TTITLE5=Huế tình yêu của tôi
TTITLE6=Tiếng hai đêm
TTITLE7=Buồn trong kỷ niệm
TTITLE8=Mèo hoang
TTITLE9=Một lần dang dở
EXTD=
EXTT0=
EXTT1=
EXTT2=
EXTT3=
EXTT4=
EXTT5=
EXTT6=
EXTT7=
EXTT8=
EXTT9=
PLAYORDER=
